# xmcd
#
# Track frame offsets: 
#        150
#        25124
#        30676
#        51407
#        80491
#        83643
#        112926
#        159573
#        160755
#        185507
#        236557
#
# Disc length: 3363 seconds
#
# Revision: 1
# Processed by: cddbd v1.5.1PL2 Copyright (c) Steve Scherf et al.
# Submitted via: ExactAudioCopy v0.95a5
#
DISCID=7d0d210b
DTITLE=Albert King - Talkin´ Blues
DYEAR=1978
DGENRE=Blues
TTITLE0=Born Under A Bad Sign
TTITLE1=Interview (Understanding The Blues)
TTITLE2=The Very Tough Of You
TTITLE3=Rub My Back
TTITLE4=Interview (Make Sure To Add The Blues)
TTITLE5=I´ll Play The Blues For You 
TTITLE6=Blues At Sunrise
TTITLE7=Interview (I Don´T Want To Be Rich)
TTITLE8=Breaking Up Somebody´S Home
TTITLE9=Please Come Back To Me
TTITLE10=Bonus Interview
EXTD=
EXTT0=
EXTT1=
EXTT2=
EXTT3=
EXTT4=
EXTT5=
EXTT6=
EXTT7=
EXTT8=
EXTT9=
EXTT10=
PLAYORDER=
